<mxfile host="app.diagrams.net" agent="Mozilla/5.0 (Windows NT 10.0; Win64; x64) AppleWebKit/537.36 (KHTML, like Gecko) Chrome/139.0.0.0 Safari/537.36" version="28.1.0">
  <diagram name="Page-1" id="JwFsWbEWUKAO-fqHCFGL">
    <mxGraphModel dx="872" dy="431" grid="1" gridSize="10" guides="1" tooltips="1" connect="1" arrows="1" fold="1" page="1" pageScale="1" pageWidth="850" pageHeight="1100" math="0" shadow="0">
      <root>
        <mxCell id="0" />
        <mxCell id="1" parent="0" />
        <mxCell id="oJyNzZMNbLwqF9OOBWFF-1" value="" style="rounded=0;whiteSpace=wrap;html=1;" vertex="1" parent="1">
          <mxGeometry x="120" y="80" width="140" height="120" as="geometry" />
        </mxCell>
        <mxCell id="oJyNzZMNbLwqF9OOBWFF-2" value="" style="rounded=0;whiteSpace=wrap;html=1;" vertex="1" parent="1">
          <mxGeometry x="410" y="80" width="140" height="120" as="geometry" />
        </mxCell>
        <mxCell id="oJyNzZMNbLwqF9OOBWFF-5" style="edgeStyle=orthogonalEdgeStyle;rounded=0;orthogonalLoop=1;jettySize=auto;html=1;" edge="1" parent="1" source="oJyNzZMNbLwqF9OOBWFF-3" target="oJyNzZMNbLwqF9OOBWFF-4">
          <mxGeometry relative="1" as="geometry" />
        </mxCell>
        <mxCell id="oJyNzZMNbLwqF9OOBWFF-3" value="" style="ellipse;whiteSpace=wrap;html=1;" vertex="1" parent="1">
          <mxGeometry x="130" y="100" width="70" height="50" as="geometry" />
        </mxCell>
        <mxCell id="oJyNzZMNbLwqF9OOBWFF-4" value="" style="ellipse;whiteSpace=wrap;html=1;" vertex="1" parent="1">
          <mxGeometry x="420" y="100" width="70" height="50" as="geometry" />
        </mxCell>
      </root>
    </mxGraphModel>
  </diagram>
</mxfile>
